<svg version="1.1" xmlns="http://www.w3.org/2000/svg" xmlns:xlink="http://www.w3.org/1999/xlink" width="500.5" height="374" viewBox="0,0,500.5,374"><g transform="translate(9.30557,5.34377)"><g data-paper-data="{&quot;isPaintingLayer&quot;:true}" fill-rule="nonzero" stroke="none" stroke-width="0" stroke-linecap="butt" stroke-linejoin="miter" stroke-miterlimit="10" stroke-dasharray="" stroke-dashoffset="0" style="mix-blend-mode: normal"><path d="M-9.30557,3.65624v-8h492v8z" fill="#9a9a9a"/><path d="M476.19443,368.65624v-374h15v374z" fill="#9a9a9a"/><path d="M-6.30557,366.65624v-9h490v9z" fill="#9a9a9a"/><path d="M-9.30557,364.65624v-365h12v365z" fill="#9a9a9a"/><path d="M314.69443,95.65624v-94h40v94z" fill="#9a9a9a"/><path d="M55.69443,74.65623v-23h182v23z" fill="#9a9a9a"/><path d="M207.69443,294.65623v-221h30v221z" fill="#9a9a9a"/><path d="M210.69443,295.65623v-31h200v31z" fill="#9a9a9a"/><path d="M138.69443,360.65623v-257h34v257z" fill="#9a9a9a"/><path d="M60.69443,364.65623v-262h37v262z" fill="#9a9a9a"/><path d="M267.69443,154.65623v-29h216v29z" fill="#9a9a9a"/><path d="M338.69443,94.65623v-34h109v34z" fill="#9a9a9a"/><path d="M280.69443,224.65623v-32h201v32z" fill="#9a9a9a"/><path d="M437.69443,361.65623v-40h49v40z" fill="#9a9a9a"/><path d="M214.69443,360.65623v-41h193v41z" fill="#9a9a9a"/></g></g></svg>