<svg version="1.1" xmlns="http://www.w3.org/2000/svg" xmlns:xlink="http://www.w3.org/1999/xlink" width="502.5" height="374" viewBox="0,0,502.5,374"><g transform="translate(10.30558,5.34376)"><g data-paper-data="{&quot;isPaintingLayer&quot;:true}" fill-rule="nonzero" stroke="none" stroke-width="0" stroke-linecap="butt" stroke-linejoin="miter" stroke-miterlimit="10" stroke-dasharray="" stroke-dashoffset="0" style="mix-blend-mode: normal"><path d="M-10.30558,3.65625v-8h492v8z" fill="#9a9a9a"/><path d="M475.19443,368.65625v-374h15v374z" fill="#9a9a9a"/><path d="M-7.30558,366.65625v-9h490v9z" fill="#9a9a9a"/><path d="M-10.30558,364.65625v-365h12v365z" fill="#9a9a9a"/><path d="M313.69443,95.65625v-94h40v94z" fill="#9a9a9a"/><path d="M54.69443,74.65624v-23h182v23z" fill="#9a9a9a"/><path d="M206.69443,294.65624v-221h30v221z" fill="#9a9a9a"/><path d="M209.69443,295.65624v-31h200v31z" fill="#9a9a9a"/><path d="M137.69443,360.65624v-257h34v257z" fill="#9a9a9a"/><path d="M59.69443,364.65624v-262h37v262z" fill="#9a9a9a"/><path d="M266.69443,154.65624v-29h216v29z" fill="#9a9a9a"/><path d="M337.69443,94.65624v-34h109v34z" fill="#9a9a9a"/><path d="M279.69443,224.65624v-32h201v32z" fill="#9a9a9a"/><path d="M436.69443,361.65624v-40h49v40z" fill="#9a9a9a"/><path d="M213.69443,360.65624v-41h193v41z" fill="#9a9a9a"/><path d="M-8.30557,3.65625v-8h492v8z" fill="#9a9a9a"/><path d="M477.19443,368.65625v-374h15v374z" fill="#9a9a9a"/><path d="M-5.30557,366.65625v-9h490v9z" fill="#9a9a9a"/><path d="M-8.30557,364.65625v-365h12v365z" fill="#9a9a9a"/><path d="M315.69443,95.65625v-94h40v94z" fill="#9a9a9a"/><path d="M56.69443,74.65623v-23h182v23z" fill="#9a9a9a"/><path d="M208.69443,294.65623v-221h30v221z" fill="#9a9a9a"/><path d="M211.69443,295.65623v-31h200v31z" fill="#9a9a9a"/><path d="M139.69443,360.65624v-257h34v257z" fill="#9a9a9a"/><path d="M61.69443,364.65624v-262h37v262z" fill="#9a9a9a"/><path d="M268.69443,154.65624v-29h216v29z" fill="#9a9a9a"/><path d="M339.69443,94.65624v-34h109v34z" fill="#9a9a9a"/><path d="M281.69443,224.65624v-32h201v32z" fill="#9a9a9a"/><path d="M438.69443,361.65624v-40h49v40z" fill="#9a9a9a"/><path d="M215.69443,360.65624v-41h193v41z" fill="#9a9a9a"/></g></g></svg>