<svg version="1.1" xmlns="http://www.w3.org/2000/svg" xmlns:xlink="http://www.w3.org/1999/xlink" width="199.88779" height="199.88779" viewBox="0,0,199.88779,199.88779"><g transform="translate(-140.0561,-80.05611)"><g data-paper-data="{&quot;isPaintingLayer&quot;:true}" fill-rule="nonzero" stroke-linejoin="miter" stroke-miterlimit="10" stroke-dasharray="" stroke-dashoffset="0" style="mix-blend-mode: normal"><path d="M140.0561,279.9439v-199.88779h199.88779v199.88779z" fill="none" stroke="none" stroke-width="0" stroke-linecap="butt"/><g stroke="#000000" stroke-width="2.20523"><path d="M206.26864,275.00303c0,0 23.69592,-54.33905 23.69592,-60.50514c0,-8.04958 0,-28.52715 0,-28.52715h27.83698c0,0 0.23006,20.21845 0.23006,28.29707c0,6.05075 26.91673,60.50514 26.91673,60.50514z" fill="#cccccc" stroke-linecap="butt"/><path d="M243.99124,183.24724c3.82038,0 7.28252,0.24858 9.78926,0.65036c2.50676,0.40178 4.05816,0.9567 4.05816,1.56933c0,0.61262 -1.55143,1.16755 -4.05816,1.5693c-2.50673,0.40178 -5.96888,0.65036 -9.78926,0.65036c-3.82038,0 -7.28247,-0.24858 -9.7892,-0.65036c-2.50679,-0.40178 -4.05819,-0.95668 -4.05819,-1.5693c0,-0.61262 1.5514,-1.16757 4.05819,-1.56933c2.50676,-0.40178 5.96882,-0.65036 9.7892,-0.65036z" fill="#cccccc" stroke-linecap="butt"/><path d="M245.65274,278.23658c-21.85387,0 -39.56992,-1.23601 -39.56992,-2.7607c0,-1.52469 17.71604,-2.7607 39.56992,-2.7607c21.85387,0 39.56989,1.23601 39.56989,2.7607c0,1.52469 -17.71604,2.7607 -39.56989,2.7607z" fill="#cccccc" stroke-linecap="butt"/><path d="M218.86682,246.66951h22.56007" fill="none" stroke-linecap="round"/><path d="M222.99367,237.31534h7.70343" fill="none" stroke-linecap="round"/><path d="M230.42195,261.52615h-18.15809" fill="none" stroke-linecap="round"/><path d="M220.79268,242.54268h2.20099" fill="none" stroke-linecap="round"/><path d="M215.01508,254.9232h7.15321" fill="none" stroke-linecap="round"/></g></g></g></svg>